<?xml version="1.0" encoding="utf-8"?>
<!-- Generator: Adobe Illustrator 24.0.3, SVG Export Plug-In . SVG Version: 6.00 Build 0)  -->
<svg version="1.1" id="レイヤー_1" xmlns="http://www.w3.org/2000/svg" xmlns:xlink="http://www.w3.org/1999/xlink" x="0px"
	 y="0px" viewBox="-20 -10 240 80" style="enable-background:new 0 0 200 68;" xml:space="preserve" width="180">
<style type="text/css">
	.st0{fill:url(#SVGID_1_);}
	.st1{fill:url(#SVGID_2_);}
	.st2{fill:url(#SVGID_3_);}
	.st3{fill:url(#SVGID_4_);}
	.st4{fill:url(#SVGID_5_);}
	.st5{fill:url(#SVGID_6_);}
	.st6{fill:url(#SVGID_7_);}
	.st7{fill:url(#SVGID_8_);}
	.st8{fill:url(#SVGID_9_);}
	.st9{fill:url(#SVGID_10_);}
	.st10{fill:url(#SVGID_11_);}
	.st11{fill:url(#SVGID_12_);}
</style>
<linearGradient id="SVGID_1_" gradientUnits="userSpaceOnUse" x1="8.2768" y1="-37.4921" x2="43.1902" y2="96.1549" gradientTransform="matrix(1 0 0 -1 0 66.6898)">
	<stop  offset="0.2134" style="stop-color:#04A9A4"/>
	<stop  offset="0.5292" style="stop-color:#10AAB8"/>
	<stop  offset="0.907" style="stop-color:#24ABD9"/>
	<stop  offset="1" style="stop-color:#29ABE2"/>
</linearGradient>
<path class="st0" d="M56.8,7.2c0.2-0.5-0.1-1-0.6-1.3c-0.2-0.1-0.4-0.2-0.7-0.2H16.9c-0.4,0-0.8,0.3-0.9,0.7l-0.9,3.2
	c0,0.5-0.5,0.8-1.1,0.8h-3.5c-0.4,0-0.8,0.3-0.9,0.7l-1.9,6.5C7.5,18.3,8.1,19,8.9,19h31c0.6,0,1.1,0.6,0.9,1.2l-3.3,11.6
	c-0.2,0.7,0.4,1.5,1.2,1.5h9.7c0.6,0,1.1-0.3,1.2-0.9L56.8,7.2z"/>
<linearGradient id="SVGID_2_" gradientUnits="userSpaceOnUse" x1="8.1136" y1="-37.4496" x2="43.027" y2="96.1974" gradientTransform="matrix(1 0 0 -1 0 66.6898)">
	<stop  offset="0.2134" style="stop-color:#04A9A4"/>
	<stop  offset="0.5292" style="stop-color:#10AAB8"/>
	<stop  offset="0.907" style="stop-color:#24ABD9"/>
	<stop  offset="1" style="stop-color:#29ABE2"/>
</linearGradient>
<path class="st1" d="M34.8,26H22.6c-0.5,0-1,0.4-1.2,0.9L10.3,66.1c-0.2,0.7,0.4,1.5,1.2,1.5h12.1c0.5,0,1-0.3,1.2-0.9l11.1-39.3
	C36.2,26.7,35.6,26,34.8,26z"/>
<linearGradient id="SVGID_3_" gradientUnits="userSpaceOnUse" x1="55.2271" y1="-49.7573" x2="90.1405" y2="83.8897" gradientTransform="matrix(1 0 0 -1 0 66.6898)">
	<stop  offset="0.2134" style="stop-color:#04A9A4"/>
	<stop  offset="0.5292" style="stop-color:#10AAB8"/>
	<stop  offset="0.907" style="stop-color:#24ABD9"/>
	<stop  offset="1" style="stop-color:#29ABE2"/>
</linearGradient>
<path class="st2" d="M101.8,6.3H66.1c-0.5,0-1,0.4-1.2,0.9l-3.2,10.6c-0.2,0.7,0.4,1.5,1.2,1.5h35.7c0.5,0,1-0.4,1.2-0.9l3.1-10.6
	C103.2,7,102.6,6.3,101.8,6.3z"/>
<linearGradient id="SVGID_4_" gradientUnits="userSpaceOnUse" x1="56.4444" y1="-50.0753" x2="91.3578" y2="83.5717" gradientTransform="matrix(1 0 0 -1 0 66.6898)">
	<stop  offset="0.2134" style="stop-color:#04A9A4"/>
	<stop  offset="0.5292" style="stop-color:#10AAB8"/>
	<stop  offset="0.907" style="stop-color:#24ABD9"/>
	<stop  offset="1" style="stop-color:#29ABE2"/>
</linearGradient>
<path class="st3" d="M95.9,28.9H62.6c-0.5,0-1,0.3-1.2,0.9l-3.1,10.6c-0.2,0.7,0.4,1.5,1.2,1.5h33.3c0.5,0,1-0.3,1.2-0.9l3.1-10.6
	C97.3,29.6,96.7,28.9,95.9,28.9z"/>
<linearGradient id="SVGID_5_" gradientUnits="userSpaceOnUse" x1="57.0263" y1="-50.2274" x2="91.9397" y2="83.4196" gradientTransform="matrix(1 0 0 -1 0 66.6898)">
	<stop  offset="0.2134" style="stop-color:#04A9A4"/>
	<stop  offset="0.5292" style="stop-color:#10AAB8"/>
	<stop  offset="0.907" style="stop-color:#24ABD9"/>
	<stop  offset="1" style="stop-color:#29ABE2"/>
</linearGradient>
<path class="st4" d="M94.2,52H53.6c-0.5,0-1,0.4-1.2,0.9l-3.2,10.6C49,64.2,49.6,65,50.4,65H91c0.5,0,1-0.4,1.2-0.9l3.2-10.7
	C95.6,52.7,95,52,94.2,52z"/>
<linearGradient id="SVGID_6_" gradientUnits="userSpaceOnUse" x1="101.0372" y1="-61.7245" x2="135.9506" y2="71.9225" gradientTransform="matrix(1 0 0 -1 0 66.6898)">
	<stop  offset="0.2134" style="stop-color:#04A9A4"/>
	<stop  offset="0.5292" style="stop-color:#10AAB8"/>
	<stop  offset="0.907" style="stop-color:#24ABD9"/>
	<stop  offset="1" style="stop-color:#29ABE2"/>
</linearGradient>
<path class="st5" d="M152.7,5.8h-27c-0.5,0-0.7-0.2-0.5-0.7l0.1-0.2c0.2-0.7-0.4-1.5-1.2-1.5h-9.7c-0.6,0-1,0.4-1.2,0.9L104,36.1
	c-0.2,0.7,0.4,1.5,1.2,1.5h9.7c0.5,0,1-0.3,1.2-0.8l4.8-16.5c0.2-0.6,0.7-0.9,1.2-0.9H134c0.9,0,1.5,0.8,1.2,1.6l-3.5,12.8
	c-0.2,0.6-0.7,1-1.2,1h-9.7c-0.6,0-1,0.3-1.2,0.9l-2.7,8.8c-0.2,0.7,0.4,1.5,1.2,1.5h8.3c0.9,0,1.5,0.8,1.2,1.6l-5.4,19
	c-0.2,0.7,0.4,1.4,1.2,1.4h12.2c0.5,0,1-0.3,1.2-0.9l17-59.7C154.1,6.5,153.5,5.8,152.7,5.8z"/>
<linearGradient id="SVGID_7_" gradientUnits="userSpaceOnUse" x1="-13.2351" y1="-31.8725" x2="21.6783" y2="101.7745" gradientTransform="matrix(1 0 0 -1 0 66.6898)">
	<stop  offset="0.2134" style="stop-color:#04A9A4"/>
	<stop  offset="0.5292" style="stop-color:#10AAB8"/>
	<stop  offset="0.907" style="stop-color:#24ABD9"/>
	<stop  offset="1" style="stop-color:#29ABE2"/>
</linearGradient>
<path class="st6" d="M12.8,9.1c0.5,0,1-0.4,1.2-0.9l1.3-4.6c0.2-0.7-0.4-1.5-1.2-1.5H9.3c-0.5,0-1,0.4-1.2,0.9L6.8,7.6
	C6.6,8.3,7.2,9.1,8,9.1H12.8z"/>
<linearGradient id="SVGID_8_" gradientUnits="userSpaceOnUse" x1="-20.3576" y1="-30.0119" x2="14.5558" y2="103.6351" gradientTransform="matrix(1 0 0 -1 0 66.6898)">
	<stop  offset="0.2134" style="stop-color:#04A9A4"/>
	<stop  offset="0.5292" style="stop-color:#10AAB8"/>
	<stop  offset="0.907" style="stop-color:#24ABD9"/>
	<stop  offset="1" style="stop-color:#29ABE2"/>
</linearGradient>
<path class="st7" d="M5.4,3.6H2.2c-0.4,0-0.7,0.2-0.8,0.6L0.5,7.3c-0.1,0.5,0.2,1,0.8,1h3.2c0.4,0,0.7-0.2,0.8-0.6l0.9-3.1
	C6.3,4.1,5.9,3.6,5.4,3.6z"/>
<linearGradient id="SVGID_9_" gradientUnits="userSpaceOnUse" x1="152.8096" y1="-75.2494" x2="187.723" y2="58.3976" gradientTransform="matrix(1 0 0 -1 0 66.6898)">
	<stop  offset="0.2134" style="stop-color:#04A9A4"/>
	<stop  offset="0.5292" style="stop-color:#10AAB8"/>
	<stop  offset="0.907" style="stop-color:#24ABD9"/>
	<stop  offset="1" style="stop-color:#29ABE2"/>
</linearGradient>
<path class="st8" d="M192.3,45.3c-0.1-0.3-0.4-0.5-0.7-0.5h-5.9c-0.8,0-1.4-0.7-1.2-1.5l0.8-3c0.1-0.2,0-0.3-0.2-0.3h-0.7
	c-0.2,0-0.3-0.1-0.2-0.4l9.7-33.4c0.2-0.7-0.4-1.5-1.2-1.5h-28.4c-0.5,0-1,0.4-1.2,0.9l-3.2,11.1c-0.2,0.7,0.4,1.5,1.2,1.5H175
	c0.5,0,0.8,0.4,0.7,0.9L162,66.4c-0.2,0.7,0.4,1.4,1.2,1.4h12.1c0.6,0,1-0.3,1.2-0.9l2.9-10.2c0.2-0.7,1.1-0.7,1.3,0l2.7,10.1
	c0.1,0.5,0.6,0.9,1.2,0.9l12.2,0.2c0.8,0,1.4-0.7,1.2-1.4L192.3,45.3z"/>
<linearGradient id="SVGID_10_" gradientUnits="userSpaceOnUse" x1="162.9904" y1="-77.9089" x2="197.9038" y2="55.7381" gradientTransform="matrix(1 0 0 -1 0 66.6898)">
	<stop  offset="0.2134" style="stop-color:#04A9A4"/>
	<stop  offset="0.5292" style="stop-color:#10AAB8"/>
	<stop  offset="0.907" style="stop-color:#24ABD9"/>
	<stop  offset="1" style="stop-color:#29ABE2"/>
</linearGradient>
<path class="st9" d="M188.5,36.8c-0.5,0-1,0.4-1.2,0.9l-1.3,4.6c-0.2,0.7,0.4,1.4,1.2,1.4h4.8c0.6,0,1-0.3,1.2-0.9l1.3-4.6
	c0.2-0.7-0.4-1.5-1.2-1.5L188.5,36.8L188.5,36.8z"/>
<linearGradient id="SVGID_11_" gradientUnits="userSpaceOnUse" x1="-19.1321" y1="-30.332" x2="15.7813" y2="103.315" gradientTransform="matrix(1 0 0 -1 0 66.6898)">
	<stop  offset="0.2134" style="stop-color:#04A9A4"/>
	<stop  offset="0.5292" style="stop-color:#10AAB8"/>
	<stop  offset="0.907" style="stop-color:#24ABD9"/>
	<stop  offset="1" style="stop-color:#29ABE2"/>
</linearGradient>
<path class="st10" d="M7.3,0.5C7.4,0.3,7.2,0,6.9,0H5.3C5.1,0,4.9,0.1,4.9,0.3L4.5,1.8C4.4,2.1,4.6,2.4,4.9,2.4h1.6
	c0.2,0,0.4-0.1,0.4-0.3L7.3,0.5z"/>
<linearGradient id="SVGID_12_" gradientUnits="userSpaceOnUse" x1="165.3076" y1="-78.5143" x2="200.221" y2="55.1327" gradientTransform="matrix(1 0 0 -1 0 66.6898)">
	<stop  offset="0.2134" style="stop-color:#04A9A4"/>
	<stop  offset="0.5292" style="stop-color:#10AAB8"/>
	<stop  offset="0.907" style="stop-color:#24ABD9"/>
	<stop  offset="1" style="stop-color:#29ABE2"/>
</linearGradient>
<path class="st11" d="M196.2,33.8l0.7-2.3c0.1-0.4-0.2-0.7-0.6-0.7h-2.4c-0.3,0-0.5,0.2-0.6,0.4l-0.7,2.3c-0.1,0.4,0.2,0.7,0.6,0.7
	h2.4C195.9,34.2,196.2,34,196.2,33.8z"/>
</svg>
