<?xml version="1.0" encoding="utf-8"?>
<!-- Generator: Adobe Illustrator 24.0.1, SVG Export Plug-In . SVG Version: 6.00 Build 0)  -->
<svg version="1.1" xmlns="http://www.w3.org/2000/svg" xmlns:xlink="http://www.w3.org/1999/xlink" x="0px"
	 y="0px" viewBox="0 60 600 200.02" style="enable-background:new 0 0 600 320.02;" xml:space="preserve" width="180">
<style type="text/css">
	.st0{fill:url(#SVGID_1_);}
	.st1{fill:url(#SVGID_2_);}
	.st2{fill:url(#SVGID_3_);}
	.st3{fill:url(#SVGID_4_);}
	.st4{fill:url(#SVGID_5_);}
	.st5{fill:url(#SVGID_6_);}
	.st6{fill:url(#SVGID_7_);}
	.st7{fill:url(#SVGID_8_);}
	.st8{fill:url(#SVGID_9_);}
	.st9{fill:url(#SVGID_10_);}
	.st10{fill:url(#SVGID_11_);}
	.st11{fill:url(#SVGID_12_);}
</style>
<g>
	<linearGradient id="SVGID_1_" gradientUnits="userSpaceOnUse" x1="68.0607" y1="122.5536" x2="191.6765" y2="122.5536">
		<stop  offset="0" style="stop-color:#16A196"/>
		<stop  offset="0.166" style="stop-color:#19A19B"/>
		<stop  offset="0.4117" style="stop-color:#21A2A8"/>
		<stop  offset="0.7059" style="stop-color:#2AA2BC"/>
		<stop  offset="1" style="stop-color:#32A2D3"/>
	</linearGradient>
	<path class="st0" d="M173.22,155.22l9.9-34.85c0.25-0.3,0.44-0.64,0.55-1.02l7.9-27.82c0.38-1.33-0.29-2.64-1.45-3.27
		c-0.49-0.32-1.09-0.51-1.75-0.51h-24.38c-0.31,0-0.6,0.05-0.88,0.13H89.73l-2.74,9.65c-0.36,1.27-1.58,2.15-2.97,2.15H73.33
		l-5.16,18.18c-0.52,1.84,0.95,3.65,2.97,3.65h80.9l-9.15,32.22c-0.52,1.84,0.95,3.65,2.97,3.65h24.38
		C171.64,157.37,172.86,156.49,173.22,155.22z"/>
	<linearGradient id="SVGID_2_" gradientUnits="userSpaceOnUse" x1="74.4614" y1="191.0232" x2="139.1721" y2="191.0232">
		<stop  offset="0" style="stop-color:#16A196"/>
		<stop  offset="0.166" style="stop-color:#19A19B"/>
		<stop  offset="0.4117" style="stop-color:#21A2A8"/>
		<stop  offset="0.7059" style="stop-color:#2AA2BC"/>
		<stop  offset="1" style="stop-color:#32A2D3"/>
	</linearGradient>
	<path class="st1" d="M136.09,138.8h-30.53c-1.39,0-2.61,0.88-2.97,2.15l-28.02,98.64c-0.52,1.84,0.95,3.65,2.97,3.65h30.54
		c1.39,0,2.61-0.88,2.97-2.15l28.02-98.64C139.59,140.61,138.12,138.8,136.09,138.8z"/>
	<linearGradient id="SVGID_3_" gradientUnits="userSpaceOnUse" x1="203.7313" y1="105.4205" x2="307.5923" y2="105.4205">
		<stop  offset="0" style="stop-color:#16A196"/>
		<stop  offset="0.166" style="stop-color:#19A19B"/>
		<stop  offset="0.4117" style="stop-color:#21A2A8"/>
		<stop  offset="0.7059" style="stop-color:#2AA2BC"/>
		<stop  offset="1" style="stop-color:#32A2D3"/>
	</linearGradient>
	<path class="st2" d="M304.51,89.19h-89.8c-1.39,0-2.61,0.88-2.97,2.15l-7.9,26.66c-0.52,1.84,0.95,3.65,2.97,3.65h89.8
		c1.39,0,2.61-0.88,2.97-2.15l7.9-26.66C308.01,91,306.54,89.19,304.51,89.19z"/>
	<linearGradient id="SVGID_4_" gradientUnits="userSpaceOnUse" x1="195.1198" y1="162.285" x2="292.8297" y2="162.285">
		<stop  offset="0" style="stop-color:#16A196"/>
		<stop  offset="0.166" style="stop-color:#19A19B"/>
		<stop  offset="0.4117" style="stop-color:#21A2A8"/>
		<stop  offset="0.7059" style="stop-color:#2AA2BC"/>
		<stop  offset="1" style="stop-color:#32A2D3"/>
	</linearGradient>
	<path class="st3" d="M198.2,178.52h83.65c1.39,0,2.61-0.88,2.97-2.15l7.9-26.66c0.52-1.84-0.95-3.65-2.97-3.65H206.1
		c-1.39,0-2.61,0.88-2.97,2.15l-7.9,26.66C194.7,176.71,196.18,178.52,198.2,178.52z"/>
	<linearGradient id="SVGID_5_" gradientUnits="userSpaceOnUse" x1="172.3609" y1="220.31" x2="288.524" y2="220.31">
		<stop  offset="0" style="stop-color:#16A196"/>
		<stop  offset="0.166" style="stop-color:#19A19B"/>
		<stop  offset="0.4117" style="stop-color:#21A2A8"/>
		<stop  offset="0.7059" style="stop-color:#2AA2BC"/>
		<stop  offset="1" style="stop-color:#32A2D3"/>
	</linearGradient>
	<path class="st4" d="M285.45,204.08h-102.1c-1.39,0-2.61,0.88-2.97,2.15l-7.9,26.66c-0.52,1.84,0.95,3.65,2.97,3.65h102.1
		c1.39,0,2.61-0.88,2.97-2.15l7.9-26.66C288.94,205.89,287.47,204.08,285.45,204.08z"/>
	<linearGradient id="SVGID_6_" gradientUnits="userSpaceOnUse" x1="310.1989" y1="162.881" x2="435.5343" y2="162.881">
		<stop  offset="0" style="stop-color:#16A196"/>
		<stop  offset="0.166" style="stop-color:#19A19B"/>
		<stop  offset="0.4117" style="stop-color:#21A2A8"/>
		<stop  offset="0.7059" style="stop-color:#2AA2BC"/>
		<stop  offset="1" style="stop-color:#32A2D3"/>
	</linearGradient>
	<path class="st5" d="M432.46,88.03h-69.47l0.7-2.42c0.53-1.85-0.94-3.67-2.97-3.67h-24.38c-1.39,0-2.6,0.88-2.97,2.14l-23.07,79.78
		c-0.53,1.85,0.94,3.67,2.97,3.67h24.38c1.39,0,2.6-0.88,2.97-2.14l12.64-43.73h36.65l-10.57,38.72h-26.83
		c-1.39,0-2.61,0.88-2.97,2.15l-6.67,22.02c-0.52,1.84,0.95,3.65,2.97,3.65h25.18l-14.78,51.97c-0.52,1.84,0.95,3.65,2.97,3.65
		h30.54c1.39,0,2.61-0.88,2.97-2.15l34.53-121.56c0.11-0.19,0.2-0.39,0.26-0.61l7.9-27.82C435.95,89.84,434.48,88.03,432.46,88.03z"
		/>
	<linearGradient id="SVGID_7_" gradientUnits="userSpaceOnUse" x1="65.7787" y1="87.481" x2="87.3133" y2="87.481">
		<stop  offset="0" style="stop-color:#16A196"/>
		<stop  offset="0.166" style="stop-color:#19A19B"/>
		<stop  offset="0.4117" style="stop-color:#21A2A8"/>
		<stop  offset="0.7059" style="stop-color:#2AA2BC"/>
		<stop  offset="1" style="stop-color:#32A2D3"/>
	</linearGradient>
	<path class="st6" d="M80.94,96.18c1.39,0,2.61-0.88,2.97-2.15l3.3-11.6c0.52-1.84-0.95-3.65-2.97-3.65H72.15
		c-1.39,0-2.61,0.88-2.97,2.15l-3.3,11.6c-0.52,1.84,0.95,3.65,2.97,3.65H80.94z"/>
	<linearGradient id="SVGID_8_" gradientUnits="userSpaceOnUse" x1="50" y1="88.3514" x2="64.3564" y2="88.3514">
		<stop  offset="0" style="stop-color:#16A196"/>
		<stop  offset="0.166" style="stop-color:#19A19B"/>
		<stop  offset="0.4117" style="stop-color:#21A2A8"/>
		<stop  offset="0.7059" style="stop-color:#2AA2BC"/>
		<stop  offset="1" style="stop-color:#32A2D3"/>
	</linearGradient>
	<path class="st7" d="M62.3,82.55h-8.05c-0.93,0-1.74,0.59-1.98,1.43l-2.2,7.73c-0.35,1.23,0.63,2.44,1.98,2.44h8.05
		c0.93,0,1.74-0.59,1.98-1.43l2.2-7.73C64.63,83.76,63.65,82.55,62.3,82.55z"/>
	<linearGradient id="SVGID_9_" gradientUnits="userSpaceOnUse" x1="451.0039" y1="164.9274" x2="546.3579" y2="164.9274">
		<stop  offset="0" style="stop-color:#16A196"/>
		<stop  offset="0.166" style="stop-color:#19A19B"/>
		<stop  offset="0.4117" style="stop-color:#21A2A8"/>
		<stop  offset="0.7059" style="stop-color:#2AA2BC"/>
		<stop  offset="1" style="stop-color:#32A2D3"/>
	</linearGradient>
	<path class="st8" d="M546.26,240.54l-14.58-54.41h-16.22c-2.02,0-3.5-1.81-2.97-3.65l2.37-8.34l-3.28-0.04l16.56-56.3
		c0.11-0.19,0.2-0.39,0.26-0.61l7.9-27.82c0.52-1.84-0.95-3.65-2.97-3.65h-71.35c-1.39,0-2.61,0.88-2.97,2.15l-7.9,27.82
		c-0.52,1.84,0.95,3.65,2.97,3.65h36.71L455.9,240.17c-0.52,1.84,0.95,3.65,2.97,3.65h30.54c1.39,0,2.61-0.88,2.97-2.15l8.96-31.56
		l8.42,31.43c0.34,1.27,1.55,2.17,2.94,2.19l30.53,0.41C545.26,244.18,546.76,242.39,546.26,240.54z"/>
	<linearGradient id="SVGID_10_" gradientUnits="userSpaceOnUse" x1="516.0774" y1="174.5186" x2="537.6119" y2="174.5186">
		<stop  offset="0" style="stop-color:#16A196"/>
		<stop  offset="0.166" style="stop-color:#19A19B"/>
		<stop  offset="0.4117" style="stop-color:#21A2A8"/>
		<stop  offset="0.7059" style="stop-color:#2AA2BC"/>
		<stop  offset="1" style="stop-color:#32A2D3"/>
	</linearGradient>
	<path class="st9" d="M522.45,165.81c-1.39,0-2.61,0.88-2.97,2.15l-3.3,11.6c-0.52,1.84,0.95,3.65,2.97,3.65h12.08
		c1.39,0,2.61-0.88,2.97-2.15l3.3-11.6c0.52-1.84-0.95-3.65-2.97-3.65H522.45z"/>
	<linearGradient id="SVGID_11_" gradientUnits="userSpaceOnUse" x1="59.9962" y1="76.4563" x2="67.1744" y2="76.4563">
		<stop  offset="0" style="stop-color:#16A196"/>
		<stop  offset="0.166" style="stop-color:#19A19B"/>
		<stop  offset="0.4117" style="stop-color:#21A2A8"/>
		<stop  offset="0.7059" style="stop-color:#2AA2BC"/>
		<stop  offset="1" style="stop-color:#32A2D3"/>
	</linearGradient>
	<path class="st10" d="M67.14,74.77c0.17-0.61-0.32-1.22-0.99-1.22h-4.03c-0.46,0-0.87,0.29-0.99,0.72l-1.1,3.87
		c-0.17,0.61,0.32,1.22,0.99,1.22h4.03c0.46,0,0.87-0.29,0.99-0.72L67.14,74.77z"/>
	<linearGradient id="SVGID_12_" gradientUnits="userSpaceOnUse" x1="532.7866" y1="155.0802" x2="543.5538" y2="155.0802">
		<stop  offset="0" style="stop-color:#16A196"/>
		<stop  offset="0.166" style="stop-color:#19A19B"/>
		<stop  offset="0.4117" style="stop-color:#21A2A8"/>
		<stop  offset="0.7059" style="stop-color:#2AA2BC"/>
		<stop  offset="1" style="stop-color:#32A2D3"/>
	</linearGradient>
	<path class="st11" d="M534.49,151.8l-1.65,5.8c-0.26,0.92,0.47,1.83,1.49,1.83h6.04c0.7,0,1.31-0.44,1.49-1.08l1.65-5.8
		c0.26-0.92-0.47-1.83-1.49-1.83h-6.04C535.28,150.73,534.67,151.17,534.49,151.8z"/>
</g>
</svg>
